<?xml version="1.0" standalone="no"?><!DOCTYPE svg PUBLIC "-//W3C//DTD SVG 1.1//EN" "http://www.w3.org/Graphics/SVG/1.1/DTD/svg11.dtd"><svg t="1577851096555" class="icon" viewBox="0 0 1024 1024" version="1.1" xmlns="http://www.w3.org/2000/svg" p-id="2375" xmlns:xlink="http://www.w3.org/1999/xlink" width="128" height="128"><defs><style type="text/css"></style></defs><path d="M288.275897 911.14632l158.916406-158.916406c13.30701-13.179058 26.486068-13.179058 39.665125 0s13.179058 26.486068 0 39.665125L328.068974 950.811446c-13.179058 13.179058-26.486068 13.179058-39.665125 0s-13.30701-26.486068-0.127952-39.665126z m441.94627 2.175184L571.433712 754.53305c-13.30701-13.179058-26.486068-13.179058-39.665125 0s-13.179058 26.486068 0 39.665126l158.788454 158.916406c13.30701 13.30701 26.486068 13.30701 39.665126 0s13.179058-26.486068 0-39.793078z" fill="#F44336" p-id="2376"></path><path d="M137.420467 154.182182h748.903162c49.901287 0 74.851931 24.950644 74.85193 74.85193v486.729477c0 49.901287-24.950644 74.851931-74.85193 74.85193H137.420467c-49.901287 0-74.851931-24.950644-74.85193-74.85193V229.162064c-0.127952-49.901287 24.950644-74.979883 74.85193-74.979882z" fill="#FFFFFF" p-id="2377"></path><path d="M333.954767 453.845808c15.482194 0 28.149444 12.66725 28.149444 28.149444v149.703861c0.383856 15.482194-12.02749 28.405348-27.509684 28.661252-15.482194 0.383856-28.405348-12.02749-28.661252-27.509684v-150.983381c-0.127952-15.482194 12.411346-28.149444 28.021492-28.021492-0.127952-0.127952 0-0.127952 0 0zM521.148569 285.333c18.680995 0 28.021492 9.340497 28.149444 28.021492v318.344621c0 18.808947-9.340497 28.149444-28.149444 28.021492-18.680995 0-28.021492-9.468449-28.021492-28.021492V313.354492c0-18.680995 9.340497-28.021492 28.021492-28.021492z m187.193803 112.341872c15.482194 0 28.149444 12.539298 28.149444 28.149444v206.002749c0 15.482194-12.539298 28.149444-28.149444 28.149444s-28.149444-12.539298-28.149444-28.149444v-206.002749c0.255904-15.610146 12.795202-28.149444 28.149444-28.149444zM446.296639 60.649257h131.022866c18.808947 0 28.149444 9.340497 28.149444 28.149443s-9.340497 28.149444-28.149444 28.021492H446.296639c-18.680995 0-28.149444-9.340497-28.149444-28.021492s9.340497-28.149444 28.149444-28.149443z" fill="#F44336" p-id="2378"></path></svg>